<svg xmlns="http://www.w3.org/2000/svg" viewBox="0 0 24 24" fill="#fff"><path d="M12 10.8c-1.087-2.114-4.046-6.053-6.798-7.995C2.566.944 1.561 1.266.902 1.565.139 1.908 0 3.08 0 3.08s1.416 5.124 3.107 7.16c1.753 2.113 3.89 1.98 3.89 1.98L12 10.8zm0 2.4c1.087 2.114 4.046 6.053 6.798 7.995 2.636 1.861 3.641 1.539 4.3 1.24.763-.343.902-1.515.902-1.515s-1.416-5.124-3.107-7.16c-1.753-2.113-3.89-1.98-3.89-1.98L12 13.2zm0-2.4c1.087-2.114 4.046-6.053 6.798-7.995C21.434.944 22.439 1.266 23.098 1.565 23.861 1.908 24 3.08 24 3.08s-1.416 5.124-3.107 7.16c-1.753 2.113-3.89 1.98-3.89 1.98L12 10.8zm0 2.4c-1.087 2.114-4.046 6.053-6.798 7.995-2.636 1.861-3.641 1.539-4.3 1.24C.139 22.092 0 20.92 0 20.92s1.416-5.124 3.107-7.16c1.753-2.113 3.89-1.98 3.89-1.98L12 13.2z"/></svg>
